<?xml version="1.0" encoding="utf-8"?>
<!-- Generator: Adobe Illustrator 28.2.0, SVG Export Plug-In . SVG Version: 6.00 Build 0)  -->
<svg version="1.1" id="Layer_1" xmlns="http://www.w3.org/2000/svg" xmlns:xlink="http://www.w3.org/1999/xlink" x="0px" y="0px"
	 viewBox="0 0 872.1 266.6" style="enable-background:new 0 0 872.1 266.6;" xml:space="preserve">
<style type="text/css">
	.st0{fill:#FFFFFF;}
</style>
<g>
	<g>
		<path class="st0" d="M25.5,21.7c24.2,0,48.3,0.1,72.5,0.1c1.2,0,2.5,0,4.1,0c0,25.1,0,50,0,75.1c26.2,0,52,0,78.1,0
			c0-25,0-49.9,0-75c25.6,0,50.8,0,76.2,0c0,25.1,0,50.1,0,75.5c-25.1,0-50,0-75.5,0c0,26.6,0,52.9,0,79.1l0.1-0.1
			c-26.4,0-52.7-0.1-79.1-0.1c-0.3,0-0.6,0.1-0.9,0.2c0.1-0.9,0.3-1.8,0.3-2.7c0-24,0-48,0-72c0-0.9-0.1-1.8-0.2-3.1
			c-1.4,0-2.7,0-3.9,0c-22.7,0-45.4,0-68.1,0c-1.2,0-2.5-0.1-3.7-0.2C25.5,72.9,25.5,47.3,25.5,21.7z"/>
		<path class="st0" d="M25.5,176.4c25.2,0,50.4,0,75.6,0c0,24.8,0,49.6,0,74.9c-25.4,0-50.5,0-75.6,0
			C25.5,226.4,25.5,201.4,25.5,176.4z"/>
		<path class="st0" d="M180.9,176.5c25.1,0,50.2,0,75.5,0c0,25,0,49.7,0,74.7c-25,0-49.9,0-75.3,0c0-1.2,0-2.5,0-3.7
			c0-22.5,0-44.9,0-67.4C181.1,178.9,181,177.6,180.9,176.5C181.1,176.4,180.9,176.5,180.9,176.5z"/>
	</g>
</g>
<g>
	<g>
		<path class="st0" d="M315.3,116.4c-7.6-3.9-13.7-9.8-18.2-17.7c-4.5-7.9-6.8-17.6-6.8-29.1c0-11.4,2.2-21.1,6.7-29
			c4.5-7.9,10.5-13.8,18.1-17.6c7.6-3.9,16.1-5.8,25.4-5.8H367v21.8h-24.8c-5.8,0-11,1.1-15.5,3.2c-4.5,2.1-8.1,5.5-10.7,10.1
			c-2.7,4.6-4,10.5-4,17.7c0,7.1,1.3,12.9,3.9,17.5c2.6,4.6,6.1,7.9,10.6,10c4.5,2.1,9.6,3.2,15.5,3.2h26.4v21.8H341
			C331.5,122.2,322.9,120.3,315.3,116.4z"/>
		<path class="st0" d="M391,17.1h21v46.9l-5.3-5.3h54.5l-5.3,5.3V17.1h21v105.1h-21V74.2l5.3,5.3h-54.5l5.3-5.3v48.1h-21V17.1z"/>
		<path class="st0" d="M502.2,102.4l19.7-23.7h-22.2V17.1h73.7v20.7h-52.7l-0.2,20.1h52.4v20.7h-26.3l-17.1,22.8h45.2v20.7h-72.5
			V102.4z"/>
		<path class="st0" d="M596.5,101.9h56V61.1l6.8,5l-41.2,22.8h-21V16.9l73.9,0.1V38h-53v38.9l-7.1-5.6l41.6-21.9h20.4v72.8h-76.5
			V101.9z"/>
		<path class="st0" d="M695.6,101.9h56V61.1l6.8,5l-41.2,22.8h-21V16.9l73.9,0.1V38h-53v38.9l-7.1-5.6l41.6-21.9h20.4v72.8h-76.5
			V101.9z"/>
		<path class="st0" d="M794.3,103.1l24.8,0.2c5.6,0,10.1-1.3,13.5-4c3.4-2.7,5.1-6.1,5.1-10.4c0-4.4-1.6-7.9-4.8-10.5
			c-3.2-2.6-8.1-3.9-14.7-3.9h-14.7V57.3l32.1-24.9l0.3,5.4h-41.8V17.1h60.4v20.1l-35.9,30.6l-1.4-5.9h13.2c8.6,0,15.4,2.6,20.4,7.7
			c5,5.2,7.4,12.1,7.4,20.8c0,9.9-3,17.7-8.9,23.3c-5.9,5.6-15.2,8.4-27.9,8.4h-27.2V103.1z"/>
	</g>
</g>
<g>
	<g>
		<path class="st0" d="M317.5,255.9c-8.4-4.4-15-10.9-19.8-19.6c-4.8-8.7-7.2-19.2-7.2-31.6c0-12.6,2.4-23.1,7.2-31.6
			c4.8-8.5,11.3-14.8,19.3-18.8c8-4.1,16.9-6.1,26.7-6.1h36v23.3h-36.3c-5.4,0-10.3,1.1-14.7,3.3c-4.5,2.2-8.1,5.8-10.9,10.8
			c-2.8,5-4.2,11.4-4.2,19.1c0,7.5,1.2,13.9,3.5,19.1c2.3,5.2,5.4,9.1,9.2,11.7c3.8,2.6,7.7,3.9,11.8,3.9l15.8-28.2l0.2,4.2H335v-19
			h49.5v64.6h-19.5v-45.6l4.2,1.1l-23,46C335.5,262.5,326,260.3,317.5,255.9z"/>
		<path class="st0" d="M435,148.2h37.2l28.1,112.7h-23.8l-19.1-93.5h-7.6l-19.1,93.5h-23.8L435,148.2z M430.7,216.6h46.2l0.3,21.3
			h-46.6L430.7,216.6z"/>
		<path class="st0" d="M522.8,148.2h59v79.2h3.2l21.2-79.2h39.9v112.7h-22.4v-87.4h-3.2l-20.4,69.7h-39.6v-72h-15.3v89.7h-22.5
			V148.2z"/>
		<path class="st0" d="M673.2,239.6l21.1-25.4h-23.8v-66h79v22.2H693l-0.2,21.6h56.1v22.2h-28.1l-18.3,24.5h48.4v22.2h-77.7V239.6z"
			/>
		<path class="st0" d="M774.2,239.2h60v-43.8l7.2,5.3l-44.1,24.5h-22.5V148l79.1,0.2v22.4h-56.8v41.7l-7.6-6l44.5-23.5h21.9v78.1
			h-81.9V239.2z"/>
	</g>
</g>
</svg>
