<?xml version="1.0" encoding="utf-8"?>
<!-- Generator: Adobe Illustrator 28.2.0, SVG Export Plug-In . SVG Version: 6.00 Build 0)  -->
<svg version="1.1" id="Layer_1" xmlns="http://www.w3.org/2000/svg" xmlns:xlink="http://www.w3.org/1999/xlink" x="0px" y="0px"
	 viewBox="0 0 182.3 91.7" style="enable-background:new 0 0 182.3 91.7;" xml:space="preserve">
<style type="text/css">
	.st0{fill:#FFFFFF;}
</style>
<g>
	<path class="st0" d="M129.5,16.4c13.5,0.3,27,0.7,40.5,1c1,13.3,2,26.5,3,39.7c-9.1,0.8-18,1.6-27.1,2.4c0.9,7,1.7,13.9,2.6,21
		c-6.3,0.4-12.6,0.7-19,1.1C129.5,59.8,129.5,38.2,129.5,16.4z M157,46.6c0-0.3,0.1-0.5,0.1-0.7c-0.1-5.3-0.2-10.6-0.3-16
		c0-0.8-0.4-0.9-1.1-0.9c-2.1-0.1-4.2-0.2-6.3-0.2c-2.2,0-4.4,0-6.8,0c0.5,6.3,1,12.6,1.5,19C148.5,47.4,152.8,47,157,46.6z"/>
	<path class="st0" d="M53.3,61c-0.9,7-1.7,13.9-2.6,21c-13.4-1.2-26.7-2.4-40.1-3.6c-0.4-20.6-0.8-41.2-1.3-61.8
		c13.6-1.3,27.1-2.7,40.7-4c0.8,9.1,1.6,18,2.4,27.1c-4.8,0.1-9.5,0.3-14.3,0.4c0-4.9,0-9.8,0-14.8c-4.4,0.3-8.8,0.7-13.3,1
		c0.2,14,0.4,28,0.5,42.1c4.3,0.5,8.5,0.9,12.9,1.4c0-3,0-5.8,0-8.8C43.2,61,48.1,61,53.3,61z"/>
	<path class="st0" d="M111.4,63.5c-0.2-1.4-0.4-2.6-0.6-3.9c-9.8,0.8-19.6,1.6-29.5,2.3c0-9.1,0-18.2,0-27.3
		c9-1.2,18.1-2.4,27.3-3.6c-0.3-3.6-0.6-7-1-10.6c-1.8,0.2-3.5,0.3-5.2,0.5c-3.1,0.3-6.2,0.7-9.2,1c-0.9,0.1-1.5,0.2-1.7,1.3
		c-0.1,0.7-0.4,1.4-0.7,2.1c-3.4-0.3-6.8-0.5-10.2-0.8c0.4-4.9,0.8-9.8,1.2-14.7c12.3,0,24.6,0,36.9,0c0.3,2.1,0.6,4.2,0.8,6.4
		c0.7,5.3,1.3,10.7,2,16c0.8,6.1,1.5,12.1,2.3,18.2c0.4,3.5,0.8,6.9,1.3,10.4c0.1,0.7-0.1,0.9-0.8,1C120,62.2,115.7,62.8,111.4,63.5
		z M94.3,50.7c5.3-0.2,10.5-0.5,15.9-0.7c-0.3-3.3-0.6-6.4-0.9-9.6c-5.1,0.7-10,1.3-15,2C94.3,45.2,94.3,47.9,94.3,50.7z"/>
	<path class="st0" d="M98.7,63.1c-0.5,6.4-1,12.6-1.5,18.9c-12-0.8-24-1.5-36.1-2.3c-0.7-21.4-1.3-42.8-2-64.3
		c5.4,0.6,10.7,1.2,16.1,1.8c-0.5,16.5-1,32.9-1.5,49.4C82.2,65.2,90.4,64.2,98.7,63.1z"/>
</g>
</svg>
