<?xml version="1.0" encoding="utf-8"?>
<!-- Generator: Adobe Illustrator 28.2.0, SVG Export Plug-In . SVG Version: 6.00 Build 0)  -->
<svg version="1.1" id="Layer_1" xmlns="http://www.w3.org/2000/svg" xmlns:xlink="http://www.w3.org/1999/xlink" x="0px" y="0px"
	 viewBox="0 0 529.8 102" style="enable-background:new 0 0 529.8 102;" xml:space="preserve">
<style type="text/css">
	.st0{display:none;}
	.st1{display:inline;}
	.st2{fill:#FFFFFF;}
</style>
<g id="Layer_2_00000104702648306529241260000005904786808784101053_" class="st0">
	<rect x="-47.9" y="-30.7" class="st1" width="359.8" height="184.3"/>
</g>
<g id="Layer_3">
	<g>
		<path class="st2" d="M334.3,65.8l9.3-8.4h-11.3v-39h47.6v14.8h-32.6v9.6h32.5v14.5h-19.1l-11.5,11.1v15.6h-15V65.8H334.3z"/>
		<path class="st2" d="M384,18.4h15v65.6h-15V18.4z"/>
		<path class="st2" d="M403.9,18.4h15v65.6h-15V18.4z M412.3,44.8h16.6c3.3,0,5.6-0.5,7-1.4c1.4-0.9,2.1-2.5,2.1-4.6
			s-0.7-3.6-2.1-4.5c-1.4-0.9-3.7-1.4-7.1-1.4h-18.9V18.4h18.8c8,0,14.1,1.8,18.2,5.4c4.1,3.6,6.2,8.7,6.2,15.3
			c0,6.4-2,11.1-6.1,14.2s-10.2,4.6-18.3,4.6h-16.4V44.8z M439.6,71.1l-13.5-13.3l12.4-6.9l15.4,16.2v16.8h-14.1L439.6,71.1z"/>
		<path class="st2" d="M459.7,69.8L470.8,58h-13.1V18.4h47.6v14.8h-32.7v10.1h32.6v14.8h-16.8l-9.3,11h27v14.9h-46.5V69.8H459.7z"/>
	</g>
</g>
<g id="Layer_1_00000081618451192525317440000016708616198260416943_">
	<g>
		<path class="st2" d="M31.9,66.3l7.7-7.7h-10V18.2h49.7V35H46.7v7.1h32.6v16.4H59L48.9,69.2v14.9h-17V66.3z"/>
		<path class="st2" d="M98.3,81.3c-4.8-2.5-8.5-6.4-11.3-11.6c-2.8-5.1-4.3-11.3-4.3-18.6s1.5-13.5,4.3-18.6
			c2.8-5.1,6.5-8.9,11.3-11.5s10-3.9,15.6-3.9s10.9,1.3,15.6,3.9s8.5,6.4,11.3,11.5s4.3,11.3,4.3,18.6s-1.5,13.5-4.3,18.6
			s-6.5,8.9-11.3,11.6c-4.8,2.5-10,3.9-15.6,3.9S103,84,98.3,81.3z M120.6,66c2.1-1.2,3.7-3,5.1-5.4c1.3-2.4,1.9-5.5,1.9-9.4
			c0-3.9-0.6-7-1.9-9.4c-1.3-2.4-3-4.2-5.1-5.4c-2.1-1-4.3-1.6-6.7-1.6s-4.6,0.6-6.7,1.6s-3.7,2.8-5.1,5.4c-1.3,2.4-1.9,5.7-1.9,9.4
			s0.6,6.8,1.9,9.4c1.3,2.4,3,4.3,5.1,5.4c2.1,1.2,4.3,1.6,6.7,1.6S118.5,67.1,120.6,66z"/>
		<path class="st2" d="M149,18.2h37.5v42.1h2.2l6.8-42.1h30.1v66.1h-17V37.5h-2.4l-6,34.4h-29.8V35.6h-4.5v48.7h-17V18.2H149z"/>
		<path class="st2" d="M245.4,81.3c-4.8-2.5-8.5-6.4-11.3-11.6c-2.8-5.1-4.3-11.3-4.3-18.6s1.5-13.5,4.3-18.6s6.5-8.9,11.3-11.5
			c4.8-2.5,10-3.9,15.6-3.9s10.9,1.3,15.6,3.9s8.5,6.4,11.3,11.5c2.8,5.1,4.3,11.3,4.3,18.6s-1.5,13.5-4.3,18.6s-6.5,8.9-11.3,11.6
			c-4.8,2.5-10,3.9-15.6,3.9S250,84,245.4,81.3z M267.6,66c2.1-1.2,3.7-3,5.1-5.4c1.3-2.4,1.9-5.5,1.9-9.4c0-3.9-0.6-7-1.9-9.4
			c-1.3-2.4-3-4.2-5.1-5.4c-2.1-1-4.3-1.6-6.7-1.6s-4.6,0.6-6.7,1.6c-2.1,1-3.7,2.8-5.1,5.4c-1.3,2.4-1.9,5.7-1.9,9.4
			s0.6,6.8,1.9,9.4c1.3,2.4,3,4.3,5.1,5.4c2.1,1.2,4.3,1.6,6.7,1.6C263.4,67.6,265.5,67.1,267.6,66z"/>
	</g>
</g>
</svg>
