<?xml version="1.0" encoding="utf-8"?>
<!-- Generator: Adobe Illustrator 28.2.0, SVG Export Plug-In . SVG Version: 6.00 Build 0)  -->
<svg version="1.1" id="Layer_1" xmlns="http://www.w3.org/2000/svg" xmlns:xlink="http://www.w3.org/1999/xlink" x="0px" y="0px"
	 viewBox="0 0 552 107.7" style="enable-background:new 0 0 552 107.7;" xml:space="preserve">
<style type="text/css">
	.st0{display:none;}
	.st1{display:inline;fill:#1D1D1B;}
	.st2{fill:#FFFFFF;}
</style>
<g id="Layer_3" class="st0">
	<rect y="-3" class="st1" width="640.6" height="113.6"/>
</g>
<g id="Layer_1_00000045609948998301769510000017008404051139037339_">
	<g>
		<path class="st2" d="M188.4,37.5l-11.7,46.1h-9.9l-8.3-31.1h-0.1l-8.3,31.1h-9.9l-11.7-46.1h9l7.8,31.6h0.1l8.4-31.6h9.3l8.4,31.5
			h0.1l7.8-31.5H188.4z"/>
		<path class="st2" d="M231.5,79.5l-7.6,4.4h-20.6l-7.6-4.4V41.6l7.6-4.4h20.6l7.6,4.4V79.5z M204.9,45.1V76h17.4V45.1H204.9z"/>
		<path class="st2" d="M277.6,83.6h-10.1l-9.9-17.4h-5.7v17.4h-9.2V37.5h24.9l7.6,4.4v19.9l-7.6,4.4L277.6,83.6z M251.9,45.4v12.9
			H266V45.4H251.9z"/>
		<path class="st2" d="M286.5,83.6V37.5h9.2v38.2h15.7v7.9H286.5z"/>
		<path class="st2" d="M354.5,79.1l-7.6,4.4h-28.2v-46h28.2l7.6,4.4V79.1z M327.9,45.4v30.3h17.4V45.4H327.9z"/>
		<path class="st2" d="M385.8,91.6h-7.9v-7.8h-5.3l-7.6-4.4v-8.8h9.2V76h14.1V64.6h-15.1l-7.6-4.4V41.6l7.6-4.4h4.6v-7.8h7.9v7.8
			h4.1l7.6,4.4v8.8h-9.2v-5.3h-13.5v11H390l7.6,4.4v19l-7.6,4.4h-4.1v7.7H385.8z"/>
		<path class="st2" d="M464.7,37.5L453,83.6h-9.9l-8.3-31.1h-0.1l-8.3,31.1h-9.9l-11.7-46.1h8.9l7.8,31.6h0.1l8.4-31.6h9.3l8.4,31.5
			h0.1l7.8-31.5H464.7z"/>
		<path class="st2" d="M491.3,37.5l16.5,46.1h-9.1l-3.5-9.9H478l-3.5,9.9h-9.1l16.5-46.1H491.3z M486.5,49.1l-5.8,16.6h11.6
			l-5.7-16.6H486.5z"/>
		<path class="st2" d="M549.3,83.6h-10.1l-9.9-17.4h-5.7v17.4h-9.2V37.5h24.9l7.6,4.4v19.9l-7.6,4.4L549.3,83.6z M523.6,45.4v12.9
			h14.1V45.4H523.6z"/>
	</g>
	<g>
		<path class="st2" d="M73.7,85.6c0.4-0.2,0.7-0.4,1-0.6c0.8-0.5,1.5-1,2.3-1.5c-0.9,0-1.9,0-2.8,0c-0.1,0.5-0.3,1-0.4,1.5
			C73.7,85.2,73.7,85.3,73.7,85.6z"/>
		<path class="st2" d="M46.4,88.4c0.3,0.2,0.6,0.3,1.1,0.4c-0.1-0.3-0.3-0.6-0.4-0.8c-0.8-1.5-1.5-3-2.3-4.4c-2.2,0-4.5,0-6.7,0
			c0,0,0.1,0,0.1,0.1C40.9,85.2,43.7,86.8,46.4,88.4z"/>
		<path class="st2" d="M119,53.6c-0.2,0-0.4,0.2-0.7,0.3c-8.8,4.5-17.6,9-26.3,13.5c-0.4,0.2-0.8,0.3-1.5,0.6
			c0.5-0.8,0.7-1.2,0.9-1.6c3.8-6.4,7.7-12.8,11.5-19.2c0.3-0.4,0.2-1.1,0.3-1.6c-0.5,0.2-1,0.2-1.4,0.5c-5.5,3.6-11,7.2-16.5,10.8
			c-0.5,0.3-0.9,0.5-1.6,0.9c0.1-0.5,0.1-0.7,0.1-0.9c1.5-5.3,2.9-10.7,4.4-16c1.7-5.9,3.3-11.9,5-17.8c0.2-0.7,0.2-1.4,0.3-2.1
			c-0.2-0.1-0.5-0.2-0.7-0.3c-7.2,10.6-14.2,21.4-21.6,32.4c-0.2-1-0.4-1.5-0.5-2.1c-1.3-8-2.4-16-3.6-24.1c-0.1-0.5-0.5-1-0.7-1.4
			c-0.3,0.4-0.7,0.8-0.9,1.3c-1.3,3.9-2.5,7.9-3.7,11.9c-0.8,2.5-1.6,5.1-2.5,7.9c-0.5-0.8-0.8-1.2-1-1.7
			c-5.5-9.3-11-18.6-16.6-27.9c-0.2-0.4-0.8-0.6-1.1-0.9c-0.1,0.4-0.3,0.9-0.2,1.3c1.8,9.3,3.6,18.5,5.4,27.8c0.3,1.8,0.7,3.6,1,5.4
			c-0.7-0.2-1.1-0.5-1.4-0.9C39.2,43.8,33.2,38,27.1,32.2c-0.4-0.4-1-0.5-1.5-0.7c0.1,0.6,0.2,1.1,0.2,1.7c0,0,0,0.1,0.1,0.1
			c4.9,9.4,9.9,18.9,14.8,28.3c0.2,0.4,0.4,0.9,0.6,1.4c-0.8-0.1-1.3-0.4-1.8-0.7c-4.4-2.6-8.9-5.2-13.3-7.8c-0.8-0.5-1.6-1-2.4-1.4
			c-0.2-0.1-0.6,0-0.9,0c0,0.3,0,0.7,0.1,0.9c0.2,0.4,0.4,0.6,0.7,1c3,4,6,8.1,9.1,12.1c0.3,0.4,0.6,0.8,0.9,1.3
			c-0.1,0.1-0.1,0.2-0.2,0.2c-0.4-0.2-0.8-0.3-1.1-0.5c-8.8-4.9-17.4-9.8-26-14.7c-0.3-0.2-0.7-0.4-1-0.6c-0.3-0.1-0.6,0-0.9,0
			c0.1,0.3,0,0.7,0.2,0.9c0.2,0.3,0.5,0.5,0.7,0.7c9.6,9.3,19.2,18.7,28.8,28c0.5,0.5,1.4,0.9,2.2,1c0-0.1-0.1-0.1-0.1-0.2
			c-0.1-0.2,0-0.4-0.1-0.6c0.2,0,0.4-0.1,0.6,0c0.5,0.2,0.9,0.5,1.4,0.8c2.2,0,4.5,0,6.7,0c-2.3-4.4-4.6-8.7-6.8-13.1v-0.1
			C38,69.8,38,69.5,38,69.1c0.3,0.1,0.7,0.2,0.9,0.5c3.8,3.6,7.5,7.2,11.3,10.8c0.2,0.2,0.4,0.4,0.9,0.5c-0.2-1.1-0.4-2.2-0.6-3.3
			c-1.4-5.6-2.5-11.3-3.6-17c0-0.3,0.1-0.5,0.1-0.8c0.2,0.2,0.6,0.3,0.7,0.6c3.4,5.7,6.8,11.5,10.2,17.2c0.2,0.3,0.3,0.5,0.6,1
			c0.6-1.8,1.1-3.3,1.5-4.9c0.8-2.4,1.5-4.9,2.3-7.3c0.1-0.3,0.3-0.5,0.5-0.8c0.2,0.3,0.4,0.6,0.4,0.9c0.7,5,1.4,10,2.2,15
			c0,0.3,0.2,0.7,0.3,1.3c4.6-6.8,8.9-13.5,13.4-20.1c0.1,0.1,0.3,0.1,0.4,0.2c-0.1,0.4-0.1,0.9-0.2,1.3c-1,3.7-2.1,7.4-3.1,11
			c-0.8,2.8-1.5,5.6-2.3,8.4c0.9,0,1.9,0,2.8,0c2.6-1.7,5.3-3.5,7.9-5.2c0.3-0.2,0.6-0.2,0.9-0.3c-0.1,0.3,0,0.7-0.2,1
			c-0.9,1.5-1.8,3-2.7,4.5c0.9,0,1.8,0,2.7,0c1.3,0,2.3-0.4,3.3-1.3c9.9-8.9,19.9-17.8,29.8-26.6c0.3-0.3,0.7-0.6,1-0.9
			c0.2-0.3,0.3-0.8,0.5-1.1C119.8,53.6,119.4,53.5,119,53.6z"/>
	</g>
</g>
<g id="Layer_2_00000106839775426843796810000011165886829736245695_">
</g>
</svg>
