<?xml version="1.0" encoding="utf-8"?>
<!-- Generator: Adobe Illustrator 28.2.0, SVG Export Plug-In . SVG Version: 6.00 Build 0)  -->
<svg version="1.1" id="Layer_1" xmlns="http://www.w3.org/2000/svg" xmlns:xlink="http://www.w3.org/1999/xlink" x="0px" y="0px"
	 viewBox="0 0 633 201.7" style="enable-background:new 0 0 633 201.7;" xml:space="preserve">
<style type="text/css">
	.st0{fill:#ffffff;}
</style>
<g>
	<path class="st0" d="M35.7,24.9v113.4h73.8V154h-92V24.9H35.7z"/>
	<path class="st0" d="M160.3,155.9c-8.8,0-17-2.1-24.6-6.4c-7.5-4.3-13.5-10.1-17.8-17.3c-4.4-7.3-6.5-15.2-6.5-23.7c0-8.7,2.2-16.7,6.5-23.9
		c4.4-7.3,10.3-13,17.8-17.2c7.5-4.2,15.7-6.3,24.6-6.3c8.7,0,16.8,2.1,24.2,6.3c7.5,4.2,13.4,10,17.7,17.3
		c4.4,7.3,6.5,15.3,6.5,23.8c0,8.6-2.2,16.5-6.5,23.7c-4.4,7.3-10.3,13-17.7,17.3C177.1,153.8,169,155.9,160.3,155.9z M160.3,76.5
		c-8.4,0-15.6,3.1-21.6,9.3c-5.9,6.2-8.9,13.7-8.9,22.6c0,8.7,3,16.2,8.9,22.4c5.9,6.2,13.1,9.3,21.6,9.3c8.3,0,15.4-3.1,21.3-9.3
		c5.9-6.2,8.9-13.7,8.9-22.4c0-8.8-3-16.4-8.9-22.6C175.7,79.6,168.6,76.5,160.3,76.5z"/>
	<path class="st0" d="M301.6,86.5V154c0,16.6-4.5,27.8-13.6,33.7c-9,5.9-19.6,8.7-31.6,8.6c-6.2-0.1-11.9-1.2-17.1-3.2c-5.2-2-9.5-4.4-13.1-7
		c-3.5-2.7-7.4-6.5-11.5-11.5l11.8-9.9c3,3.6,5.8,6.4,8.3,8.4c2.5,2,5.6,3.8,9.3,5.3c3.7,1.5,7.8,2.3,12.2,2.3
		c6.6,0,12.7-2,18.3-5.9c5.6-3.9,8.4-10.8,8.4-20.6v-0.2v-49.1c-3.7,12.6-7.4,22.2-10.9,28.8c-3.5,6.6-8.2,12.2-14,16.8
		c-5.8,4.6-12.6,6.3-20.3,5.2c-14.4-2.2-21.6-16.9-21.6-43.9V62.4h18.4v47.9c0.4,9.9,1.3,17,2.7,21.1c1.4,4.1,3.6,6.4,6.6,6.6
		c5.2,0.6,10.2-2.7,14.9-9.6c4.7-7,8.8-15.3,12.2-24.9c3.5-9.6,7.4-23.3,11.8-41.1h18.4V86.5z"/>
	<path class="st0" d="M341.8,140c3.7-0.3,7.1-1.5,10.2-3.6c3-2.1,6.6-5.1,10.6-9c3-2.9,5.6-5.1,7.6-6.7c2-1.6,4-2.6,6.1-3
		c5.8-1.4,10.1-0.5,12.8,2.6c2.8,3.1,4.4,7.1,4.9,12.1c0.5,5,0.1,12.2-1.1,21.8h-17.6c1.5-6.4,2.2-10.8,2.1-13.5
		c-0.1-2.6-1.2-4.1-3.1-4.6c-1.1-0.1-2.2,0.2-3.4,1c-1.2,0.8-2.9,2.3-5.1,4.4c-3.6,3.6-7.2,6.6-10.8,9c-3.6,2.4-8,4.2-13.3,5.3
		c-4.1,0.8-8.9,0.5-14.3-0.8c-5.4-1.4-10.1-4.2-14-8.4c-3.9-4.2-5.8-10-5.7-17.3c0.1-6.4,1.9-11.5,5.3-15.3
		c3.4-3.9,7.6-6.7,12.7-8.6c5.1-1.9,11.1-3.3,18-4.5c0.3,0,0.7-0.1,1.2-0.2c8.1-1.2,14.4-2.7,18.7-4.2c4.3-1.6,7-4.3,8.3-8.2
		c1.2-3.3,0.1-6.6-3.4-9.8c-3.5-3.2-9.7-4.5-18.5-3.6c-6.4,0.4-11.8,1.9-16.3,4.4c-4.5,2.5-8.3,6.4-11.5,11.8l-11.8-8.5
		c3.6-6.1,8.8-11.1,15.7-15.1c6.9-4,14.8-6.2,23.8-6.6c9.5-0.6,18.5,0.9,26.9,4.4c8.4,3.5,13,9.8,13.7,19.1
		c0.6,6.4-0.7,11.4-3.8,15.1c-3.1,3.7-7,6.4-11.8,8c-4.8,1.6-11.1,3.1-19,4.7c-9,1.7-15.7,3.5-20.3,5.5c-4.6,2-7.2,5.3-7.9,9.8
		c-0.4,3.2,0.4,6.2,2.6,9.1C332.4,139.1,336.3,140.4,341.8,140z"/>
	<path class="st0" d="M400.2,26.6h18.4V154h-18.4V26.6z"/>
	<path class="st0" d="M432.3,45.8c-2.3-2.1-3.4-4.8-3.4-8c0-3.2,1.1-5.9,3.4-8.1c2.3-2.2,5-3.3,8.2-3.3c3.2,0,5.9,1.1,8.2,3.3
		c2.3,2.2,3.4,4.9,3.4,8.1c0,3.2-1.1,5.8-3.4,8c-2.3,2.1-5,3.2-8.2,3.2C437.3,49,434.5,47.9,432.3,45.8z M431.5,154h18.7V62.7h-18.7
		V154z"/>
	<path class="st0" d="M518,137.6c3.9-3,5.4-6.5,4.2-10.7c-0.8-2.8-3-4.9-6.6-6.3c-3.6-1.5-9-3.1-16.4-4.9c-7.9-1.9-14.4-3.8-19.5-5.7
		c-5.1-1.9-9.6-4.6-13.5-8.2c-3.9-3.6-6.1-8.4-6.6-14.3c-0.6-8.4,3-15.2,10.8-20.3c7.7-5.1,18.2-7.2,31.5-6.2
		c6.6,0.3,12.4,1.4,17.4,3.3c5,1.9,9,4,12.2,6.3c3.2,2.3,6.5,5.4,9.9,9.4L530,88.8c-4.4-4.6-8.7-7.9-12.8-9.9s-9.1-3.3-14.9-3.7
		c-6.4-0.6-11.8,0.1-16.4,1.9c-4.6,1.8-6.6,4.6-6.2,8.5c0.3,3,2.2,5.4,5.9,7c3.7,1.7,9.4,3.5,17.3,5.6s14.4,4.1,19.5,6
		c5.1,1.9,9.6,4.7,13.5,8.4c3.9,3.7,6,8.5,6.4,14.4c0.7,9.9-3.1,17.4-11.5,22.4c-8.4,5-18.8,7-31.4,6.2c-6.9-0.4-13-1.6-18.3-3.6
		c-5.3-2-9.6-4.2-12.8-6.6c-3.2-2.4-6.6-5.8-10.1-10.1l12.4-8.1c2.2,2.6,4.4,4.7,6.6,6.3c2.2,1.6,5.1,3.1,8.7,4.5
		c3.6,1.4,7.8,2.3,12.6,2.7C507.6,141.5,514.1,140.5,518,137.6z"/>
	<path class="st0" d="M588.6,80.7v46.4c0,5,1.3,8.5,3.9,10.6c2.6,1.5,6.3,2.3,11,2.3c2.6,0,4.5-0.1,5.6-0.4l5.8-1v16.2l-4.1,0.6
		c-2.9,0.3-5.3,0.4-7.3,0.4c-9.5,0-17.3-2.2-23.2-6.6c-6.6-5-9.9-12.3-9.9-22V77.2c-3.9-0.6-7.8-0.8-11.7-0.6
		c-3.9,0.1-8.8,0.7-14.6,1.7V62.7c7.3-3.2,13.1-7.2,17.3-12.1c4.2-4.9,7.1-9.8,8.8-14.6c1.7-4.8,2.7-11.1,3.1-18.7h16.6
		c0,10.9-2,20.2-5.9,27.9c-3.9,7.7-8.9,13.5-15,17.5c10.4,0.3,18.3,1.1,23.9,2.6c5.6,1.5,10.1,3.8,13.6,7.1v18
		c-2.6-2.5-5.3-4.5-8-5.9S592.5,81.8,588.6,80.7z"/>
</g>
</svg>