<?xml version="1.0" encoding="utf-8"?>
<!-- Generator: Adobe Illustrator 28.2.0, SVG Export Plug-In . SVG Version: 6.00 Build 0)  -->
<svg version="1.1" id="Layer_1" xmlns="http://www.w3.org/2000/svg" xmlns:xlink="http://www.w3.org/1999/xlink" x="0px" y="0px"
	 viewBox="0 0 709.4 134" style="enable-background:new 0 0 709.4 134;" xml:space="preserve">
<style type="text/css">
	.st0{fill:#FFFFFF;}
</style>
<g>
	<path class="st0" d="M390.1,55c5.2-2.7,9.6-5.3,14.2-7.1c1.4-0.6,3.6,1,5.4,1.4c1.6,0.4,3.8,1.2,4.8,0.5c7.3-4.7,14.2-4.1,20.9,0.9
		c2.5,1.8,4.3,1.2,6.8-0.1c4.1-2.2,9.4-5.9,12.9-4.8c6.9,2.1,13,7,19.4,10.9c0.9,0.5,1.3,2.3,1.3,3.4c0.1,16.7,0.1,33.4,0.1,50.2
		c-6.2,0-11.7,0-17.8,0c0-4,0-7.6,0-11.3c0-11.1-0.1-22.3,0.2-33.4c0.1-3.8-1.9-5.5-4.7-6.9c-3.6-1.8-7.3,0.7-7.3,5.1
		c-0.2,13.7-0.2,27.4-0.3,41.1c0,1.7,0,3.5,0,5.6c-5.9,0-11.4,0-17.7,0c0-1.7,0-3.4,0-5.1c0-13.1,0.3-26.1-0.1-39.2
		c-0.1-2.3-2.3-5.2-4.4-6.4c-1.4-0.9-4.5,0.2-6.3,1.3c-1.1,0.6-1.5,2.9-1.6,4.5c-0.1,13.2-0.1,26.4-0.1,39.6c0,1.6,0,3.1,0,5.2
		c-6.1,0-11.8,0-18,0c0-3.5,0-6.6,0-9.7c0-9.1-0.1-18.2,0.1-27.2C398.1,66.2,397.3,59.7,390.1,55z"/>
	<path class="st0" d="M51.4,59.5c-2.8-4.6-5.1-9.1-8.1-13.2c-1.5-2.1-5.4-5.1-6.3-4.5c-2.7,1.6-5.6,4.5-6.5,7.4
		c-1.3,4.6-1.4,9.7-1.4,14.6c0,6.2,0.4,12.3,0.9,18.5c0.2,2.4,0.8,5.3,2.3,7c1.8,2.1,5.5,4.9,7,4.3c3.1-1.5,5.5-4.8,7.9-7.6
		c0.6-0.7,0.2-2.1,0.3-3.6c-2.5-0.4-4.8-0.7-7.8-1.1c0-4.1,0-8.4,0-13.2c8.4,0.6,16.5,1.1,24.7,1.7c0,13.6,0,26.8,0,40.3
		c-3.9,0-7.7,0-11.9,0c-0.6-1.9-1.3-4-2.1-6.6c-2.8,2.3-5.2,4.5-7.8,6.5c-3,2.3-6.3,2.8-9.2,0.3c-5.9-5-12.2-9.8-17.1-15.7
		c-2.7-3.3-3.9-8.7-4.1-13.3c-0.4-11.4-0.1-22.9,0.7-34.3c0.2-3.5,2.3-7.3,4.7-10c3.4-3.7,7.7-6.6,11.8-9.7
		c4.7-3.5,9.7-3.5,14.7-0.3c8.1,5.1,14.7,11.7,19.2,20.2c1.7,3.2,1.7,5.4-2.1,7.1C57.8,55.7,54.6,57.8,51.4,59.5z"/>
	<path class="st0" d="M117,44.5c5.6-2.7,10.4-5.6,15.7-7.3c1.7-0.5,4.4,2.3,7.4,4.1c9.3-7,17.4-2,25.2,4.8c2.6,2.3,5.7,4.4,7.6,7.2
		c2,2.8,3.9,6.4,4.1,9.7c0.6,8.7,0.3,17.5,0.2,26.2c0,1.7-0.1,3.8-1,5.1c-5.9,7.9-13.5,14.2-23.2,15.7c-8.9,1.4-18.1,0.3-27.9,0.3
		c0-2.1,0-3.8,0-5.5c-0.1-13.1-0.2-26.1-0.2-39.2C124.9,57.9,123.6,50.5,117,44.5z M143,54.3c0,14.5,0,28.8,0,43.2
		c11.5,1.1,16.2-1.7,16.6-10.1c0.4-7.6,0-15.2-0.1-22.9C159.5,56.4,151.5,49.6,143,54.3z"/>
	<path class="st0" d="M65.8,69.5c0.9-7,0.4-14.6,3-20.9c3.8-9.2,12.7-14,22.2-16.5c2.1-0.6,5.5,0.8,7.5,2.4c5.6,4.4,11.2,9,16,14.3
		c2.4,2.6,3.9,6.7,4.1,10.2c0.5,10.2,0.2,20.4,0.1,30.5c0,1.7-0.5,3.6-1.5,4.9c-5.6,7.6-12.8,13.3-21.6,16.9c-1.5,0.6-3.5,0.4-5.1,0
		c-1.7-0.4-3.3-1.2-4.8-2.2C72.9,101.2,64,91.2,66.6,74.9c0.3-1.7,0-3.5,0-5.3C66.3,69.6,66.1,69.5,65.8,69.5z M101.3,72.5
		c0.1,0,0.2,0,0.3,0c-0.3-5.4,0.2-11-1.3-16.1c-0.9-3.2-4.3-6.3-7.4-7.9c-1.2-0.6-4.8,2.6-7,4.5c-0.9,0.8-1.1,2.6-1.1,4
		c-0.1,9.8-0.1,19.6,0.1,29.4c0.1,4.2,5.2,9.4,8.4,9.2c3.1-0.2,7.5-5.3,7.9-9.2c0.1-0.9,0.1-1.9,0.1-2.9
		C101.3,79.8,101.3,76.1,101.3,72.5z"/>
	<path class="st0" d="M587.8,110.3c-5.7,0-11.2,0-17.3,0c0-1.9,0-3.6,0-5.3c0.1-14.5,0.2-29,0.3-43.5c0-5.6-2.9-9.6-7-9.7
		c-4.6-0.1-8.2,4-8.2,9.5c0,16.2,0,32.4,0,48.9c-6.1,0-11.8,0-18.1,0c0-2,0-3.7,0-5.4c0.1-12.4,0.3-24.8,0.3-37.2
		c0-9.2-0.2-9.5-7.2-19.1c3.6-2.3,7.5-4.3,10.9-6.9c3.8-3,6.6-2.2,9.3,1.2c0.5,0.6,0.8,1.4,1.3,2.2c3.4-2.1,6-3.9,8.7-5.5
		c1.5-0.9,3.2-1.5,4.8-2c5-1.6,20.8,9.2,22.4,13c0.4,0.9,0.4,1.9,0.4,2.8c-0.1,18.3-0.1,36.6-0.2,54.9
		C588.1,108.9,587.9,109.5,587.8,110.3z"/>
	<path class="st0" d="M679.5,110.1c-6.4,0-12,0-18.3,0c0-6.9,0-13.9,0-20.8c0-0.6-0.1-1.3,0-1.9c1.1-6.8-0.9-11.9-6.8-16.3
		c-9.3-6.9-12.4-16.4-9.8-27.9c0.7-3.1-0.3-6.6-0.6-9.9c-0.3-3.1,1.1-4.2,4.1-4.5c4.6-0.4,9.1-1,14-1.5c0,7.2,0.3,14.3-0.1,21.4
		c-0.4,6.9,3.3,11.2,8.1,15.8c4.5-4.7,8.4-9.1,8.5-15.7c0.1-7.1,0.4-14.3,0.9-21.4c0.1-1.2,1.3-3,2.3-3.2c4.7-1,9.4-1.5,15.4-2.3
		c-0.6,11.4,0.3,22.7-2.3,33.3c-1.6,6.7-8.5,12-12.7,18.1c-1.3,1.9-2.6,4.3-2.7,6.6C679.4,89.9,679.5,99.7,679.5,110.1z"/>
	<path class="st0" d="M642.5,96.5c0,4.6,0,8.9,0,13.6c-15.7,0-31.3,0-47.4,0c-0.1-1.2-0.3-2.6-0.3-3.9c0-19.3,0.1-38.6,0-57.8
		c0-2.7,1-4.1,3-5.9c9.8-9,21.6-12.3,34.6-12.7c2.7-0.1,5.4-0.7,8.4-1.1c0,4.9,0,9.4,0,14.3c-5.9,0.7-11.9,1.8-17.9,2
		c-10.1,0.4-10.6,4.4-10.6,13c0,1.7,0.6,3.4,1,5.4c7.3-0.4,14.4-0.9,21.8-1.3c0,4.5,0,8.9,0,13.9c-6.1,0.3-12.1,0.8-18.1,0.9
		c-3,0.1-4.4,0.8-4.3,4.1c0.2,5.1,0.1,10.1,0.1,15.6C622.4,96.5,632.4,96.5,642.5,96.5z"/>
	<path class="st0" d="M531.5,69.2c0,6.6,0,13.3,0,19.9c0,0.8,0.1,1.6-0.2,2.4c-3,9.9-11.9,13.6-19.6,18.5
		c-5.1,3.3-10.1,1.7-14.9-1.1c-1-0.6-1.9-1.2-2.9-1.7c-10.6-5.7-16.9-13.7-14.6-26.6c0.8-4.6-0.2-9.6,0.3-14.3
		c0.3-2.9,0.9-6.6,2.9-8.2c6.5-5.5,13.7-10.2,20.7-15.2c0.4-0.3,0.9-0.3,1.4-0.4c9-1.6,26.3,11.5,27.2,20.6c0.2,2.1,0.3,4.1,0.5,6.2
		C531.9,69.2,531.7,69.2,531.5,69.2z M513.9,76.7c0-4,0.2-8-0.1-11.9c-0.2-3.9-4.2-7.9-7.5-8.2c-3-0.3-8.4,3.6-8.5,7.1
		c-0.4,9-0.7,18.1,0.1,27.1c0.2,2.5,3.9,5.3,6.6,6.6c1.4,0.6,4.8-1.3,6.3-3c1.7-1.9,2.6-4.7,3-7.2C514.3,83.7,514,80.1,513.9,76.7z"
		/>
	<path class="st0" d="M311.9,79.9c4,15.5-5.8,22.8-17.5,29.1c-6.1,3.3-11.8,3.5-17.6-0.2c-1.2-0.8-2.4-1.6-3.7-2.2
		c-11.6-5.4-15.4-14.9-14.1-27c0.1-1.1-0.1-2.3,0-3.3c0.9-5.6,0.2-12.2,3.1-16.4c4.8-6.9,12.8-11,21.1-13.2c2-0.5,4.7-0.2,6.4,0.8
		c6.4,3.9,12.8,7.8,18.5,12.6c2.2,1.8,3,5.8,3.5,8.9C312.4,72.5,311.9,76.3,311.9,79.9z M277.3,78.8c0,3.3,0,6.7,0,10
		c0,0.3,0,0.6,0,1c0.3,3.8,4.9,8.7,8.2,8.8c3.4,0.2,8.1-4.4,8.2-8.5c0.2-7.1,0.2-14.2,0-21.3c-0.1-4.4-4.7-9.1-8.3-9.1
		c-3.9,0-8.1,4.8-8.2,9.6C277.3,72.4,277.3,75.6,277.3,78.8z"/>
	<path class="st0" d="M234.3,61.3c-5.2,2.5-9.7,4.6-13.8,6.6c-3.5-3.6-6.5-7.2-10-10.1c-3.5-3.1-9.2-2.1-11.3,1.4
		c-2.1,3.4-0.6,6.4,4.3,8.9c7.4,3.7,14.8,7.6,22.3,11.1c11.2,5.2,9.2,19.7,0.2,24.1c-2.3,1.1-4.3,2.7-6.5,4
		c-13.9,8.1-32.5,1.8-39.3-13.7c4.5-2.3,9.1-4.7,13.7-7.1c-0.6,0.6-1.1,1.3-1.7,1.9c4,3,7.8,6,11.9,8.9c3.1,2.1,8.6,0.9,10.6-2.1
		c2-3,1.1-6.5-2.6-8.3c-7.3-3.5-14.8-6.7-22.2-10.2c-7-3.3-10.5-8.9-8.9-16.6c0.5-2.7,2-6.1,4.2-7.6c5.1-3.5,10.6-6.5,16.3-8.9
		c2.5-1.1,6.1-1,8.8-0.2C220.3,46.2,228.6,51.5,234.3,61.3z"/>
	<path class="st0" d="M358,73.9c0,4.1,0,7.6,0,11.4c-7.4,0-14.5,0-22.5,0c0,8.6,0,16.8,0,25.2c-6.2,0-11.6,0-17.4,0
		c-0.1-1.1-0.4-2.2-0.4-3.2c0-11.6,0.1-23.3-0.1-34.9c-0.1-7.3,2.2-13.1,8.8-16.8c1.8-1,3.4-2.3,5.2-3.4c11.6-7.1,27.8-4.8,37.9,5.6
		c-4.2,2.1-8.2,4.5-12.5,6c-1.6,0.5-4.1-1-6-1.9c-6.3-3.2-12.1-2.2-14.4,3.1c-1.1,2.5-1.1,5.5-1.7,8.9C342.6,73.9,350,73.9,358,73.9
		z"/>
</g>
</svg>
