<?xml version="1.0" encoding="utf-8"?>
<!-- Generator: Adobe Illustrator 28.2.0, SVG Export Plug-In . SVG Version: 6.00 Build 0)  -->
<svg version="1.1" id="Layer_1" xmlns="http://www.w3.org/2000/svg" xmlns:xlink="http://www.w3.org/1999/xlink" x="0px" y="0px"
	 viewBox="0 0 1052.7 324.3" style="enable-background:new 0 0 1052.7 324.3;" xml:space="preserve">
<style type="text/css">
	.st0{fill:#FFFFFF;}
</style>
<g>
	<path class="st0" d="M86.8,68.6h37.6v196.8H86.8V68.6z"/>
	<path class="st0" d="M198.6,134.6c14-11.8,26.9-18.6,43-18.6c27.1,0,49.9,18.6,49.9,49.9v99.5h-36.5v-68.8
		c0-28.8-2.5-47.2-24.7-47.2c-10.1,0-18.9,4.9-24.7,14c-7.4,11.8-7.1,24.9-7.1,40v62h-36.5V119.8h36.5V134.6z"/>
	<path class="st0" d="M309.7,119.8h13.7c0-7.4,0-16.4,2.7-25.5c6.9-22.2,26-34.5,53.2-34.5c19.2,0,34,5.8,44.1,17.3
		c10.4,11.8,11.8,24.7,11.8,42.8v145.6h-36.5V117.1c0-17.3-5.8-26.6-19.5-26.6c-14.8,0-19.5,11-19.5,29.3h21.4v30.7h-21.4v114.9
		h-36.5V150.5h-13.7V119.8z"/>
	<path class="st0" d="M469.5,119.8h36.5v75.9c0,26,8.2,39.8,27.4,39.8c19.5,0,27.4-13.4,27.4-38.1v-77.6h36.5V187
		c0,26.9-1.6,46.6-17,63.6c-11.5,12.9-26.6,18.4-46.9,18.4c-35.1,0-56.7-17.8-62.5-51.8c-1.9-11.8-1.4-18.6-1.4-30.7V119.8z"/>
	<path class="st0" d="M774.6,68.6h37.8l75.9,196.8h-38.9l-15.4-40.6h-80.3l-16.2,40.6h-38.9L774.6,68.6z M793.8,120.7l-26,67.4h52.1
		L793.8,120.7z"/>
	<path class="st0" d="M914.7,68.6h37.6v196.8h-37.6V68.6z"/>
</g>
</svg>
